# xmcd
#
# Track frame offsets:
#	150
#	18140
#	40714
#	61385
#	77807
#	89040
#	110765
#	130035
#	147797
#	166885
#	185892
#	198990
#	219050
#	230655
#	247490
#	266275
#	279797
#	301472
#	321980
#
# Disc length: 4539
#
# Revision: 1
# Processed by: cddbd v1.5.1PL0 Copyright (c) Steve Scherf et al.
# Submitted via: EasyCDDAExtractor 5.0.4.1
# Normalized: r0:DSETVAR1,TDELIM( - )
#
DISCID=1011b913
DTITLE=Various Artist - Ballades and mots d'amour
DYEAR=2000
DGENRE=Country
TTITLE0=Alessandro Safina - La sete di vivere
TTITLE1=Axelle Red - Rester femme
TTITLE2=Johnny Hallyday - Je te promet
TTITLE3=William Sheller - Un homme heureux
TTITLE4=Serge Gainsbourg - La javanaise
TTITLE5=Alain Bashung - Madame rêve
TTITLE6=Daniel Balavoine - La vie ne m'apprend rien
TTITLE7=Eddy Mitchell - M'man
TTITLE8=François Feldman - J'aurais voulu te dire
TTITLE9=Alabina - Comme toi
TTITLE10=Dalida - Il venait d'avoir 18 ans
TTITLE11=Jacques Brel - La chanson des vieux amants
TTITLE12=Jean Ferrat - Aimer à perdre la raison
TTITLE13=Léo Ferré - C'est extra
TTITLE14=Claude François - Comme d'habitude
TTITLE15=Georges Brassens - Les amoureux des bancs publics
TTITLE16=Barbara - Ma plus belle histoire d'amour
TTITLE17=Marvin Gaye - I want you
TTITLE18=Lionel Richie - Hello
EXTD=
EXTT0=
EXTT1=
EXTT2=
EXTT3=
EXTT4=
EXTT5=
EXTT6=
EXTT7=
EXTT8=
EXTT9=
EXTT10=
EXTT11=
EXTT12=
EXTT13=
EXTT14=
EXTT15=
EXTT16=
EXTT17=
EXTT18=
PLAYORDER=
